<!--?xml version="1.0" standalone="no"?-->
              <svg id="sw-js-blob-svg" viewBox="0 0 100 100" xmlns="http://www.w3.org/2000/svg" version="1.1">
                    <defs> 
                        <linearGradient id="sw-gradient" x1="0" x2="1" y1="1" y2="0">
                            <stop id="stop1" stop-color="rgba(129, 0, 0, 1)" offset="0%"></stop>
                            <stop id="stop2" stop-color="rgba(28.638, 28.638, 28.638, 0.95)" offset="100%"></stop>
                        </linearGradient>
                    </defs>
                <path fill="url(#sw-gradient)" d="M23.5,-36.1C30.8,-31.9,37.2,-25.9,40.3,-18.6C43.4,-11.3,43.1,-2.6,41.7,5.9C40.4,14.4,38,22.6,32.9,28.7C27.9,34.7,20.2,38.6,12,41C3.9,43.4,-4.7,44.4,-12,41.8C-19.2,39.2,-25.1,33,-29.6,26.4C-34.2,19.8,-37.4,12.8,-39.5,5.1C-41.6,-2.7,-42.5,-11.3,-39.8,-18.6C-37.1,-25.9,-30.8,-32,-23.5,-36.2C-16.3,-40.5,-8.2,-42.9,0,-42.9C8.1,-42.8,16.2,-40.3,23.5,-36.1Z" width="100%" height="100%" transform="translate(50 50)" stroke-width="0" style="transition: all 0.3s ease 0s;" stroke="url(#sw-gradient)"></path>
              </svg>