<!--?xml version="1.0" standalone="no"?-->
              <svg id="sw-js-blob-svg" viewBox="0 0 130 170" xmlns="http://www.w3.org/2000/svg" version="1.1">
                    <defs>
                        <linearGradient id="sw-gradient" x1="0" x2="1" y1="1" y2="0">
                            <stop id="stop1" stop-color="rgba(28.602, 28.602, 28.602, 1)" offset="0%"></stop>
                            <stop id="stop2" stop-color="rgba(197, 0, 0, 1)" offset="100%"></stop>
                        </linearGradient>
                    </defs>
                <path fill="url(#sw-gradient)" d="M23,-36.3C29.9,-31.3,35.9,-25.2,38.1,-18.1C40.3,-10.9,38.8,-2.8,37.1,5C35.5,12.8,33.7,20.2,29.7,26.8C25.7,33.4,19.4,39.2,12.2,41.1C5,43,-3.2,41,-10.4,37.8C-17.5,34.6,-23.5,30,-28.2,24.5C-32.9,18.9,-36.3,12.3,-38.7,4.8C-41,-2.8,-42.3,-11.3,-39.4,-18.2C-36.6,-25.1,-29.7,-30.3,-22.5,-35.2C-15.2,-40.2,-7.6,-44.8,0.2,-45.1C8,-45.4,16,-41.4,23,-36.3Z" width="100%" height="100%" transform="translate(50 50)" stroke-width="0" style="transition: all 0.3s ease 0s;"></path>
              </svg>
