<?xml version="1.0" standalone="no"?>
<svg xmlns:xlink="http://www.w3.org/1999/xlink" id="wave"
     style="transform:rotate(0deg); transition: 0.3s" viewBox="0 0 1440 490" version="1.1" xmlns="http://www.w3.org/2000/svg"><defs>
    <linearGradient id="sw-gradient-0" x1="0" x2="0" y1="1" y2="0"><stop stop-color="rgba(0, 0, 0, 1)" offset="0%"/>
        <stop stop-color="rgba(125.65, 0, 0, 1)" offset="100%"/></linearGradient></defs>
    <path style="transform:translate(0, 0px); opacity:1" fill="url(#sw-gradient-0)" d="M0,392L60,400.2C120,408,240,425,360,408.3C480,392,600,343,720,269.5C840,196,960,98,1080,49C1200,0,1320,0,1440,32.7C1560,65,1680,131,1800,179.7C1920,229,2040,261,2160,302.2C2280,343,2400,392,2520,400.2C2640,408,2760,376,2880,375.7C3000,376,3120,408,3240,375.7C3360,343,3480,245,3600,179.7C3720,114,3840,82,3960,122.5C4080,163,4200,278,4320,277.7C4440,278,4560,163,4680,106.2C4800,49,4920,49,5040,57.2C5160,65,5280,82,5400,98C5520,114,5640,131,5760,114.3C5880,98,6000,49,6120,57.2C6240,65,6360,131,6480,171.5C6600,212,6720,229,6840,220.5C6960,212,7080,180,7200,138.8C7320,98,7440,49,7560,65.3C7680,82,7800,163,7920,220.5C8040,278,8160,310,8280,310.3C8400,310,8520,278,8580,261.3L8640,245L8640,490L8580,490C8520,490,8400,490,8280,490C8160,490,8040,490,7920,490C7800,490,7680,490,7560,490C7440,490,7320,490,7200,490C7080,490,6960,490,6840,490C6720,490,6600,490,6480,490C6360,490,6240,490,6120,490C6000,490,5880,490,5760,490C5640,490,5520,490,5400,490C5280,490,5160,490,5040,490C4920,490,4800,490,4680,490C4560,490,4440,490,4320,490C4200,490,4080,490,3960,490C3840,490,3720,490,3600,490C3480,490,3360,490,3240,490C3120,490,3000,490,2880,490C2760,490,2640,490,2520,490C2400,490,2280,490,2160,490C2040,490,1920,490,1800,490C1680,490,1560,490,1440,490C1320,490,1200,490,1080,490C960,490,840,490,720,490C600,490,480,490,360,490C240,490,120,490,60,490L0,490Z"/></svg>
